<?xml version="1.0" encoding="UTF-8"?>
<svg xmlns="http://www.w3.org/2000/svg" xmlns:xlink="http://www.w3.org/1999/xlink" viewBox="0 0 16 16" width="16px" height="16px">
<g id="surface164179525">
<path style=" stroke:none;fill-rule:nonzero;fill:rgb(50.980395%,50.980395%,50.980395%);fill-opacity:1;" d="M 14.648438 11.511719 C 14.296875 12.269531 14.128906 12.609375 13.675781 13.28125 C 13.046875 14.21875 12.15625 15.390625 11.054688 15.398438 C 10.078125 15.40625 9.804688 14.988281 8.476562 15 C 7.148438 15.007812 6.890625 15.410156 5.910156 15.398438 C 4.8125 15.390625 3.96875 14.335938 3.335938 13.398438 C 1.605469 10.820312 1.417969 7.644531 2.476562 6.054688 C 3.246094 4.894531 4.46875 4.210938 5.613281 4.210938 C 6.78125 4.210938 7.515625 4.976562 8.480469 4.976562 C 9.417969 4.976562 9.988281 4.210938 11.339844 4.210938 C 12.359375 4.210938 13.441406 4.753906 14.210938 5.691406 C 11.785156 6.992188 12.238281 10.617188 14.648438 11.511719 Z M 14.648438 11.511719 "/>
<path style=" stroke:none;fill-rule:nonzero;fill:rgb(50.980395%,50.980395%,50.980395%);fill-opacity:1;" d="M 5.949219 15.597656 L 5.910156 15.597656 C 4.730469 15.589844 3.863281 14.539062 3.171875 13.511719 C 1.488281 11.003906 1.125 7.722656 2.308594 5.945312 C 3.101562 4.75 4.367188 4.011719 5.613281 4.011719 C 6.269531 4.011719 6.796875 4.238281 7.265625 4.4375 C 7.675781 4.609375 8.0625 4.773438 8.480469 4.773438 C 8.863281 4.773438 9.1875 4.628906 9.558594 4.460938 C 10.027344 4.25 10.558594 4.007812 11.339844 4.007812 C 12.433594 4.007812 13.566406 4.589844 14.367188 5.5625 L 14.523438 5.753906 L 14.304688 5.867188 C 13.285156 6.414062 12.726562 7.457031 12.808594 8.652344 C 12.890625 9.878906 13.640625 10.925781 14.71875 11.324219 L 14.921875 11.398438 L 14.828125 11.59375 C 14.464844 12.378906 14.296875 12.714844 13.84375 13.394531 C 13.113281 14.480469 12.210938 15.589844 11.054688 15.597656 C 10.5625 15.597656 10.25 15.507812 9.921875 15.414062 C 9.558594 15.308594 9.179688 15.199219 8.523438 15.199219 L 8.476562 15.199219 C 7.796875 15.203125 7.417969 15.3125 7.054688 15.417969 C 6.726562 15.511719 6.414062 15.597656 5.949219 15.597656 Z M 5.613281 4.410156 C 4.5 4.410156 3.363281 5.082031 2.644531 6.164062 C 1.5625 7.789062 1.933594 10.949219 3.503906 13.289062 C 4.136719 14.226562 4.917969 15.191406 5.914062 15.199219 L 5.949219 15.398438 L 5.949219 15.199219 C 6.359375 15.199219 6.628906 15.121094 6.941406 15.03125 C 7.316406 14.925781 7.742188 14.804688 8.472656 14.800781 L 8.523438 14.800781 C 9.238281 14.800781 9.660156 14.921875 10.03125 15.027344 C 10.347656 15.121094 10.621094 15.199219 11.03125 15.199219 C 12.023438 15.191406 12.839844 14.167969 13.511719 13.167969 C 13.910156 12.574219 14.082031 12.25 14.378906 11.613281 C 13.261719 11.113281 12.5 9.984375 12.410156 8.679688 C 12.320312 7.40625 12.875 6.289062 13.902344 5.640625 C 13.191406 4.867188 12.246094 4.410156 11.339844 4.410156 C 10.644531 4.410156 10.175781 4.621094 9.722656 4.824219 C 9.324219 5.003906 8.949219 5.175781 8.480469 5.175781 C 7.980469 5.175781 7.539062 4.984375 7.109375 4.804688 C 6.65625 4.609375 6.1875 4.410156 5.613281 4.410156 Z M 5.613281 4.410156 "/>
<path style=" stroke:none;fill-rule:nonzero;fill:rgb(50.980395%,50.980395%,50.980395%);fill-opacity:1;" d="M 10.535156 2.996094 C 11.0625 2.34375 11.519531 1.539062 11.371094 0.601562 C 10.515625 0.65625 9.453125 1.066406 8.867188 1.753906 C 8.335938 2.378906 8.078125 3.300781 8.246094 4.199219 C 9.183594 4.226562 9.972656 3.699219 10.535156 2.996094 Z M 10.535156 2.996094 "/>
<path style=" stroke:none;fill-rule:nonzero;fill:rgb(50.980395%,50.980395%,50.980395%);fill-opacity:1;" d="M 8.320312 4.402344 L 8.082031 4.394531 L 8.050781 4.238281 C 7.875 3.316406 8.128906 2.316406 8.714844 1.625 C 9.371094 0.859375 10.515625 0.457031 11.359375 0.402344 L 11.542969 0.386719 L 11.570312 0.570312 C 11.738281 1.667969 11.148438 2.550781 10.691406 3.121094 C 10.03125 3.945312 9.1875 4.402344 8.320312 4.402344 Z M 11.195312 0.820312 C 10.476562 0.910156 9.546875 1.265625 9.019531 1.882812 C 8.546875 2.441406 8.320312 3.242188 8.417969 4 C 9.128906 3.964844 9.820312 3.566406 10.378906 2.871094 C 10.976562 2.128906 11.238281 1.472656 11.195312 0.820312 Z M 11.195312 0.820312 "/>
</g>
</svg>
