<?xml version="1.0" encoding="UTF-8"?>
<svg xmlns="http://www.w3.org/2000/svg" xmlns:xlink="http://www.w3.org/1999/xlink" viewBox="0 0 24 24" width="24px" height="24px">
<g id="surface163907214">
<path style=" stroke:none;fill-rule:nonzero;fill:rgb(50.980395%,50.980395%,50.980395%);fill-opacity:1;" d="M 6.128906 7 L 6.128906 12.253906 C 6.128906 13.144531 5.785156 14.988281 3.0625 14.988281 C 0.335938 14.988281 0 13.273438 0 12.292969 L 0 11.414062 L 1.898438 11.414062 L 1.898438 12.277344 C 1.898438 12.851562 2.277344 13.382812 3.003906 13.382812 C 3.71875 13.382812 4.160156 12.976562 4.160156 12.292969 L 4.160156 7 Z M 9.269531 13.730469 C 8.683594 13.730469 8.347656 13.269531 8.347656 12.4375 L 11.742188 12.4375 C 11.742188 9.824219 10.351562 9.371094 9.191406 9.371094 C 7.101562 9.371094 6.636719 10.953125 6.636719 12.3125 C 6.636719 13.667969 7.566406 14.988281 9.191406 14.988281 C 10.703125 14.988281 11.722656 13.992188 11.722656 13.246094 L 10.054688 13.246094 C 10.054688 13.246094 9.863281 13.730469 9.269531 13.730469 Z M 9.171875 10.507812 C 9.800781 10.507812 10.074219 10.992188 10.074219 11.5 L 8.347656 11.5 C 8.347656 10.953125 8.5625 10.507812 9.171875 10.507812 Z M 14.886719 13.730469 C 14.300781 13.730469 13.964844 13.269531 13.964844 12.4375 L 17.359375 12.4375 C 17.359375 9.824219 15.96875 9.371094 14.808594 9.371094 C 12.71875 9.371094 12.253906 10.953125 12.253906 12.3125 C 12.253906 13.667969 13.183594 14.988281 14.808594 14.988281 C 16.320312 14.988281 17.339844 13.992188 17.339844 13.246094 L 15.671875 13.246094 C 15.671875 13.246094 15.480469 13.730469 14.886719 13.730469 Z M 14.789062 10.507812 C 15.417969 10.507812 15.691406 10.992188 15.691406 11.5 L 13.964844 11.5 C 13.964844 10.953125 14.179688 10.507812 14.789062 10.507812 Z M 21.644531 9.371094 C 20.425781 9.371094 19.980469 10.148438 19.914062 10.285156 L 19.914062 9.371094 L 18 9.371094 L 18 17 L 19.914062 17 L 19.914062 14.480469 C 19.988281 14.578125 20.433594 15.203125 21.664062 15.203125 C 23.144531 15.203125 24 13.929688 24 12.191406 C 24 9.941406 22.566406 9.371094 21.644531 9.371094 Z M 21.085938 13.90625 C 20.1875 13.90625 19.894531 13.335938 19.914062 12.253906 C 19.9375 11.171875 20.425781 10.730469 21 10.730469 C 21.945312 10.730469 22.117188 11.449219 22.117188 12.191406 C 22.117188 12.933594 21.984375 13.90625 21.085938 13.90625 Z M 21.085938 13.90625 "/>
</g>
</svg>
